<?xml version="1.0" standalone="no"?>
<!DOCTYPE svg PUBLIC "-//W3C//DTD SVG 20010904//EN"
 "http://www.w3.org/TR/2001/REC-SVG-20010904/DTD/svg10.dtd">
<svg version="1.0" xmlns="http://www.w3.org/2000/svg"
 width="128.000000pt" height="128.000000pt" viewBox="0 0 128.000000 128.000000"
 preserveAspectRatio="xMidYMid meet">
<metadata>
Created by potrace 1.14, written by Peter Selinger 2001-2017
</metadata>
<g transform="translate(0.000000,128.000000) scale(0.100000,-0.100000)"
fill="#000000" stroke="none">
<path d="M335 1032 c-76 -5 -82 -9 -126 -85 -23 -39 -71 -121 -107 -182 l-64
-110 -1 -184 0 -185 26 -22 c24 -20 36 -22 184 -22 87 -1 174 3 193 8 40 11
143 109 159 153 6 16 11 44 11 63 0 32 2 34 34 34 34 0 34 0 34 -45 0 -25 7
-56 15 -69 27 -41 126 -131 151 -137 14 -4 96 -7 183 -7 170 0 205 8 217 50 3
13 6 97 6 188 l0 166 -101 174 c-55 96 -108 183 -118 193 -13 14 -34 18 -101
18 -75 1 -86 -2 -102 -21 -10 -12 -18 -31 -18 -41 0 -16 8 -19 53 -19 39 0 58
-5 69 -17 22 -26 140 -234 135 -239 -2 -2 -196 -3 -430 -2 l-426 3 69 119 c71
124 85 139 123 136 55 -5 67 0 67 23 0 45 -46 65 -135 59z"/>
</g>
</svg>
